<?xml version="1.0" encoding="utf-8"?>
<!-- Generator: Adobe Illustrator 21.1.0, SVG Export Plug-In . SVG Version: 6.00 Build 0)  -->
<svg version="1.1" id="Layer_1" xmlns="http://www.w3.org/2000/svg" xmlns:xlink="http://www.w3.org/1999/xlink" x="0px" y="0px"
	 viewBox="0 0 508 148" style="enable-background:new 0 0 508 148;" xml:space="preserve">
<style type="text/css">
	.st0{fill:#808184;stroke:#FFFFFF;stroke-linejoin:round;stroke-miterlimit:10;}
	.st1{fill:#F8931D;stroke:#FFFFFF;stroke-linejoin:round;stroke-miterlimit:10;}
	.st2{fill:#89D3CE;stroke:#FFFFFF;stroke-linejoin:round;stroke-miterlimit:10;}
	.st3{fill:#D0D2D3;stroke:#FFFFFF;stroke-linejoin:round;stroke-miterlimit:10;}
	.st4{fill:#C4E9E7;stroke:#FFFFFF;stroke-linejoin:round;stroke-miterlimit:10;}
	.st5{fill:none;stroke:#FFFFFF;stroke-linejoin:round;stroke-miterlimit:10;}
	.st6{fill:#14A79D;stroke:#FFFFFF;stroke-linejoin:round;stroke-miterlimit:10;}
	.st7{fill:#4FBDB6;stroke:#FFFFFF;stroke-linejoin:round;stroke-miterlimit:10;}
	.st8{fill:#FFFFFF;}
	.st9{fill:#F8931D;}
	.st10{fill:#14A79D;}
</style>
<polygon class="st0" points="58.2,144.5 4.9,109 4.9,38 58.2,73.5 "/>
<polygon class="st1" points="58.2,144.5 111.4,109 111.4,38 58.2,73.5 "/>
<polygon class="st2" points="31.6,91.2 4.9,73.5 4.9,38 31.6,55.8 "/>
<polygon class="st3" points="111.4,38 58.2,73.5 4.9,38 58.2,2.5 "/>
<polygon class="st4" points="58.2,38 31.6,55.8 4.9,38 31.6,20.3 "/>
<line class="st5" x1="31.6" y1="20.3" x2="31.6" y2="55.8"/>
<line class="st5" x1="4.9" y1="73.5" x2="31.6" y2="55.8"/>
<polygon class="st6" points="4.9,73.5 31.6,91.2 31.6,55.8 "/>
<polygon class="st7" points="31.6,20.3 31.6,55.8 58.2,38 "/>
<path class="st8" d="M89.2,72.1v16.6l-8.9-10.8L73,82.8v32.5l7.4-4.9V93.8l8.9,10.8l7.4-4.9V67.2L89.2,72.1z"/>
<g>
	<path class="st9" d="M141.5,102.6l4.1-20.8H140l0.5-2.3h8.1l-4.5,22.8c-0.1,0.7-0.2,1.2-0.2,1.7c0,2.7,1.6,2.9,3,2.9
		c1.1,0,1.6-0.1,1.6-0.1l-0.5,2.3c0,0-1.2,0.1-1.8,0.1c-1.7,0-4.9-0.6-4.9-4.8C141.3,103.9,141.4,103.2,141.5,102.6z M148,67.6h3.2
		l-0.9,4.3h-3.2L148,67.6z"/>
	<path class="st9" d="M173.5,91h2.3c0,0,0.5-2.6,0.5-3.8c0-3.5-1.5-6-6.6-6c-5.1,0-8.9,2.8-8.9,2.8l-1.1-2.2c0,0,4.2-3,10.3-3
		c5.9,0,8.9,2.7,8.9,8c0,3.5-3.2,14.7-3.2,17.2c0,2.7,1.6,2.9,3,2.9c1.1,0,1.6-0.1,1.6-0.1l-0.5,2.3c0,0-1.2,0.1-1.8,0.1
		c-3.5,0-5.3-2.3-4.7-6.2h-0.1c0.1,0-4,6.7-11.2,6.7c-4.9,0-8.8-2.7-8.8-7.3C153.2,92.7,165.3,91,173.5,91z M162.3,107.4
		c6.3,0,11.4-6.8,12.8-12.7l0.4-1.5h-1.9c-5.7,0-17.7,0.5-17.7,8.8C155.8,104.9,157.7,107.4,162.3,107.4z"/>
	<path class="st9" d="M192.6,83c0.1-0.7-0.1-1.3-1.1-1.3h-4.3l0.5-2.3h4.7c2.2,0,2.9,0.8,2.9,2.4c0,0.7-0.6,3.9-1.2,5.3h0.1
		c1.5-3.1,6.5-8.3,13.8-8.3c5.2,0,7.9,2.7,7.9,7.4c0,3.6-3,15.4-3,17.8c0,2.8,1.6,2.9,3,2.9c1.1,0,1.6-0.1,1.6-0.1L217,109
		c0,0-1.2,0.1-1.8,0.1c-1.7,0-4.9-0.7-4.9-4.6c0-2.4,3-14.2,3-17.8c0-3.8-2.1-5.6-5.7-5.6c-7,0-13.5,6.5-15,14L190,109h-2.5
		L192.6,83z"/>
	<path class="st9" d="M240.7,97.7l3.1-16h-5.6l0.5-2.3h5.6l1.6-8.2h2.5l-1.6,8.2h7.7l-0.5,2.3h-7.7l-3.1,16.4
		c-0.2,1.1-0.3,2.1-0.3,2.9c0,5.2,3.1,5.9,5.3,5.9c1.1,0,1.7-0.1,1.7-0.1l-0.5,2.3c0,0-0.5,0.1-1.2,0.1c-3.1,0-7.7-0.9-7.7-8.1
		C240.4,100.1,240.5,99,240.7,97.7z"/>
	<path class="st9" d="M256.2,105.3h3.6l-0.7,3.7h-3.6L256.2,105.3z"/>
	<path class="st9" d="M289.9,83c0.1-0.7-0.1-1.3-1.1-1.3h-4.3l0.5-2.3h4.7c2.2,0,2.9,0.8,2.9,2.4c0,0.7-0.6,3.9-1.2,5.3h0.1
		c1.5-3.1,6.5-8.3,13.8-8.3c5.2,0,7.9,2.7,7.9,7.4c0,3.6-3,15.4-3,17.8c0,2.8,1.6,2.9,3,2.9c1.1,0,1.6-0.1,1.6-0.1l-0.5,2.3
		c0,0-1.2,0.1-1.8,0.1c-1.7,0-4.9-0.7-4.9-4.6c0-2.4,3-14.2,3-17.8c0-3.8-2.1-5.6-5.7-5.6c-7,0-13.5,6.5-15,14l-2.7,13.8h-2.5
		L289.9,83z"/>
	<path class="st9" d="M339.2,78.7c7.6,0,12.8,5.3,12.8,12.7c0,10.2-9,18.3-18.4,18.3c-7.6,0-12.8-5.4-12.8-12.8
		C320.8,86.8,329.6,78.7,339.2,78.7z M333.8,107.3c7.7,0,15.5-7.1,15.5-15.9c0-6-4.3-10.3-10.5-10.3c-7.9,0-15.5,7-15.5,15.7
		C323.4,102.9,327.6,107.3,333.8,107.3z"/>
	<path class="st9" d="M363.2,83c0.1-0.7-0.1-1.3-1.1-1.3h-4.3l0.5-2.3h4.7c2.2,0,2.9,0.8,2.9,2.4c0,0.7-0.8,4.3-1.3,5.7h0.1
		c2.1-4.3,5.9-8.3,11-8.3c0.6,0,1.1,0.1,1.8,0.2l-0.5,2.5c-0.5-0.1-0.9-0.1-1.3-0.1c-7.2,0-11.6,9.9-12.8,16l-2.2,11.3h-2.5
		L363.2,83z"/>
	<path class="st9" d="M393.4,78.7c4.6,0,8.3,2.3,9.5,6.7h0.1c0,0,0.1-1.4,0.3-2.7l2.5-12.8h-5.6l0.5-2.3h8.1l-6.7,34.6
		c-0.1,0.7-0.2,1.2-0.2,1.7c0,2.7,1.6,2.9,3,2.9c1.1,0,1.6-0.1,1.6-0.1l-0.5,2.3c0,0-1.2,0.1-1.8,0.1c-3.5,0-5.4-2.4-4.6-6h-0.1
		c-2,3.3-6,6.6-11.3,6.6c-7,0-10.8-4.5-10.8-11.7C377.3,86.6,385.1,78.7,393.4,78.7z M388.1,107.3c8.4,0,13.4-9.3,13.4-17
		c0-5-2.5-9.2-8.1-9.2c-6.3,0-13.5,6.3-13.5,16.8C379.9,103.7,382.9,107.3,388.1,107.3z"/>
	<path class="st9" d="M430,78.7c7,0,10.1,4.4,10.1,10.5c0,2.2-0.8,4.6-0.8,4.6h-23.7c0,0-0.4,1.5-0.4,3.3c0,5.7,3.5,10.2,10.4,10.2
		c5.6,0,9.9-3.7,9.9-3.7l0.9,2.2c0,0-4.8,3.9-10.9,3.9c-7.6,0-13-4.7-13-12.4C412.6,87.9,419.9,78.7,430,78.7z M437.3,91.5
		c0,0,0.2-1.1,0.2-2.5c0-5.5-3.3-8-7.6-8c-5.4,0-11.2,3.5-13.6,10.5H437.3z"/>
	<path class="st9" d="M463.3,78.7c3.7,0,10.1,1.7,9.2,6.1l-0.5,2.9h-2.5l0.4-2.3c0.5-3.1-4.1-4.3-7.1-4.3c-7.2,0-15.4,6.6-15.4,15.7
		c0,6.7,4.6,10.5,10.6,10.5c6.4,0,10.6-4.3,10.6-4.3l0.9,2.2c0,0-4.4,4.4-11.7,4.4c-7.5,0-13.1-4.7-13.1-12.8
		C444.8,86.5,454,78.7,463.3,78.7z"/>
	<path class="st9" d="M484.2,69.9h-5.6l0.5-2.3h8.1l-4.6,23.5h4.4l10.2-9.3h-4.3l0.5-2.3h11.7l-0.5,2.3h-3.9l-11.4,10.5v0.1
		c0,0,0.7,0.5,1.4,2l4.4,9.8c0.7,1.4,1.2,2.7,3.6,2.7c0.7,0,1.7-0.1,1.7-0.1l-0.5,2.3c0,0-0.9,0.1-1.7,0.1c-3.4,0-4.5-2.1-5.9-5
		l-4.3-9.4c-0.5-1.1-1.2-1.3-2.8-1.3h-3L479,109h-2.5L484.2,69.9z"/>
</g>
<g>
	<path class="st10" d="M139.1,125.6h10.4v3.5h-6.2v3.5h5.2v3.5h-5.2v6.3h-4.1V125.6z"/>
	<path class="st10" d="M156,125.6h4.1v10.7c0,1.8,1.2,2.7,2.9,2.7c1.8,0,2.9-0.9,2.9-2.7v-10.7h4.1v10.7c0,3.8-2.8,6.5-7,6.5
		c-4.3,0-7.1-2.7-7.1-6.5V125.6z"/>
	<path class="st10" d="M178,125.6h4.1V139h6.9v3.5h-11V125.6z"/>
	<path class="st10" d="M195.5,125.6h4.1V139h6.9v3.5h-11V125.6z"/>
	<path class="st10" d="M211.7,134h7.4v3.5h-7.4V134z"/>
	<path class="st10" d="M227.5,137.2c0,0,1.9,1.7,4,1.7c0.9,0,1.8-0.3,1.8-1.3c0-2-7.6-1.9-7.6-7.1c0-3.1,2.6-5.2,6-5.2
		c3.6,0,5.4,1.9,5.4,1.9l-1.8,3.4c0,0-1.7-1.5-3.7-1.5c-0.9,0-1.8,0.4-1.8,1.3c0,2.1,7.6,1.8,7.6,7.1c0,2.8-2.2,5.3-6,5.3
		c-4,0-6.2-2.4-6.2-2.4L227.5,137.2z"/>
	<path class="st10" d="M247.7,129.2h-5.1v-3.5H257v3.5h-5.1v13.4h-4.1V129.2z"/>
	<path class="st10" d="M270.8,139h-5.3l-1,3.5h-4.3l5.7-16.9h4.4l5.7,16.9h-4.3L270.8,139z M268.1,129.5c0,0-0.4,1.8-0.7,2.9l-1,3.3
		h3.3l-0.9-3.3C268.6,131.3,268.2,129.5,268.1,129.5L268.1,129.5z"/>
	<path class="st10" d="M289.8,125.3c4.2,0,6.3,2.4,6.3,2.4l-1.9,3.1c0,0-1.9-1.7-4.2-1.7c-3.2,0-4.8,2.4-4.8,4.8
		c0,2.5,1.7,5.1,4.8,5.1c2.6,0,4.5-2.1,4.5-2.1l2.1,3c0,0-2.4,2.8-6.8,2.8c-5.3,0-8.9-3.8-8.9-8.8
		C280.9,129.1,284.7,125.3,289.8,125.3z"/>
	<path class="st10" d="M303.3,125.6h4.1v6.5h1.7l3.5-6.5h4.4l-4.6,8.1v0l4.8,8.8h-4.6l-3.6-6.9h-1.7v6.9h-4.1V125.6z"/>
	<path class="st10" d="M333.4,125.6h6c5.3,0,8.7,3.1,8.7,8.4c0,5.3-3.4,8.5-8.7,8.5h-6V125.6z M339.2,139c2.9,0,4.6-1.7,4.6-4.9
		c0-3.2-1.8-4.9-4.6-4.9h-1.7v9.8H339.2z"/>
	<path class="st10" d="M355.2,125.6h10.6v3.5h-6.5v3.1h5.2v3.5h-5.2v3.2h6.8v3.5h-10.9V125.6z"/>
	<path class="st10" d="M371.2,125.6h4.5l3,9.6c0.3,1.1,0.6,2.7,0.6,2.7h0c0,0,0.3-1.7,0.6-2.7l3-9.6h4.4l-6,16.9h-4.3L371.2,125.6z"
		/>
	<path class="st10" d="M393.4,125.6H404v3.5h-6.5v3.1h5.2v3.5h-5.2v3.2h6.8v3.5h-10.9V125.6z"/>
	<path class="st10" d="M411.5,125.6h4.1V139h6.9v3.5h-11V125.6z"/>
	<path class="st10" d="M436.6,125.3c5.1,0,8.8,3.8,8.8,8.6c0,5-3.7,8.8-8.8,8.8c-5.1,0-8.8-3.9-8.8-8.8
		C427.7,129.1,431.5,125.3,436.6,125.3z M436.6,139c2.5,0,4.6-2.2,4.6-5.1c0-2.8-2-4.8-4.6-4.8s-4.6,2.1-4.6,4.8
		C432,136.8,434,139,436.6,139z"/>
	<path class="st10" d="M452.4,125.6h7c3.3,0,5.5,2.4,5.5,5.8c0,3.4-2.2,5.9-5.5,5.9h-2.9v5.2h-4.1V125.6z M458.6,133.7
		c1.4,0,2.2-1,2.2-2.3c0-1.3-0.7-2.3-2.1-2.3h-2.1v4.6H458.6z"/>
	<path class="st10" d="M471.6,125.6h10.6v3.5h-6.5v3.1h5.2v3.5h-5.2v3.2h6.8v3.5h-10.9V125.6z"/>
	<path class="st10" d="M489.6,125.6h5.9c1.7,0,2.6,0.1,3.3,0.4c1.9,0.7,3.1,2.5,3.1,4.9c0,1.8-0.9,3.8-2.5,4.6v0c0,0,0.2,0.3,0.6,1
		l3.3,5.9h-4.6l-3-5.7h-1.9v5.7h-4.1V125.6z M495.6,133.3c1.3,0,2.2-0.7,2.2-2.1c0-1.3-0.5-2-2.6-2h-1.4v4.1H495.6z"/>
</g>
</svg>
