<?xml version="1.0" encoding="utf-8"?>
<!-- Generator: Adobe Illustrator 21.1.0, SVG Export Plug-In . SVG Version: 6.00 Build 0)  -->
<svg version="1.1" id="Layer_1" xmlns="http://www.w3.org/2000/svg" xmlns:xlink="http://www.w3.org/1999/xlink" x="0px" y="0px"
	 viewBox="0 0 114 148" style="enable-background:new 0 0 114 148;" xml:space="preserve">
<style type="text/css">
	.st0{fill:#808184;stroke:#FFFFFF;stroke-width:1.9721;stroke-linejoin:round;stroke-miterlimit:10;}
	.st1{fill:#F8931D;stroke:#FFFFFF;stroke-width:1.9721;stroke-linejoin:round;stroke-miterlimit:10;}
	.st2{fill:#89D3CE;stroke:#FFFFFF;stroke-width:1.9721;stroke-linejoin:round;stroke-miterlimit:10;}
	.st3{fill:#D0D2D3;stroke:#FFFFFF;stroke-width:1.9721;stroke-linejoin:round;stroke-miterlimit:10;}
	.st4{fill:#C4E9E7;stroke:#FFFFFF;stroke-width:1.9721;stroke-linejoin:round;stroke-miterlimit:10;}
	.st5{fill:none;stroke:#FFFFFF;stroke-width:1.9721;stroke-linejoin:round;stroke-miterlimit:10;}
	.st6{fill:#14A79D;stroke:#FFFFFF;stroke-width:1.9721;stroke-linejoin:round;stroke-miterlimit:10;}
	.st7{fill:#4FBDB6;stroke:#FFFFFF;stroke-width:1.9721;stroke-linejoin:round;stroke-miterlimit:10;}
	.st8{fill:#FFFFFF;}
</style>
<polygon class="st0" points="56.4,145 3.2,109.5 3.2,38.5 56.4,74 "/>
<polygon class="st1" points="56.4,145 109.7,109.5 109.7,38.5 56.4,74 "/>
<polygon class="st2" points="29.8,91.7 3.2,74 3.2,38.5 29.8,56.3 "/>
<polygon class="st3" points="109.7,38.5 56.4,74 3.2,38.5 56.4,3 "/>
<polygon class="st4" points="56.4,38.5 29.8,56.3 3.2,38.5 29.8,20.8 "/>
<line class="st5" x1="29.8" y1="20.8" x2="29.8" y2="56.3"/>
<line class="st5" x1="3.2" y1="74" x2="29.8" y2="56.3"/>
<polygon class="st6" points="3.2,74 29.8,91.7 29.8,56.3 "/>
<polygon class="st7" points="29.8,20.8 29.8,56.3 56.4,38.5 "/>
<path class="st8" d="M87.5,72.6v16.6l-8.9-10.8l-7.4,4.9v32.5l7.4-4.9V94.3l8.9,10.8l7.4-4.9V67.7L87.5,72.6z"/>
</svg>
